<?xml version="1.0" encoding="utf-8"?>
<!-- Generator: Adobe Illustrator 28.1.0, SVG Export Plug-In . SVG Version: 6.00 Build 0)  -->
<svg version="1.1" id="Capa_1" xmlns="http://www.w3.org/2000/svg" xmlns:xlink="http://www.w3.org/1999/xlink" x="0px" y="0px"
	 viewBox="0 0 1080 1080" style="enable-background:new 0 0 1080 1080;" xml:space="preserve">
<style type="text/css">
	.st0{fill:#FFFFFF;}
</style>
<path class="st0" d="M472.83,954.19c-15.51-3.91-31.63-6.25-46.43-12.01c-75.61-29.41-121.39-84.26-132.13-165.07
	c-9.6-72.17,15.55-132.52,70.12-180.42c4.42-3.88,5.24-7.81,5.24-13.05c-0.08-119.99-0.17-239.99-0.02-359.98
	c0.08-60.83,39.36-110.16,98.21-124.05c72.11-17.02,145.19,36.96,150.55,111.25c0.54,7.5,0.84,15.04,0.84,22.57
	c0.05,116.37,0.1,232.73-0.12,349.1c-0.01,6.8,2.1,11.1,7.16,15.57c49.39,43.71,72.86,98.9,70.3,164.7
	c-3.59,91.95-74.86,172.31-165.9,188.14c-4.82,0.84-9.57,2.15-14.35,3.24C501.81,954.19,487.32,954.19,472.83,954.19z
	 M568.35,409.81c-0.02,0-0.04,0-0.05,0c0-63.34,0.38-126.68-0.12-190.02c-0.42-53.32-57.01-88.57-104.87-65.36
	c-29.08,14.1-42.83,38.2-42.79,70.68c0.16,124.73,0,249.45,0.16,374.18c0.02,12.48-4.59,21.42-14.63,29.07
	c-50.38,38.42-71.32,89.32-60.37,151.91c14.69,83.94,100.15,139.99,182.36,119.51c61.81-15.39,101.74-55.11,114.61-117.38
	c12.94-62.66-8.47-114.77-59.39-153.76c-10.6-8.12-15.13-17.37-15.06-30.5C568.52,535.37,568.35,472.59,568.35,409.81z"/>
<path class="st0" d="M797.16,428.41c-5.94,15.02-17.31,20.21-32.93,19.79c-22.53-0.61-45.1,0.03-67.64-0.22
	c-20.01-0.22-32.48-16.71-26.18-34.08c3.61-9.96,12.86-16.73,24.59-16.86c25.33-0.27,50.67-0.21,76-0.02
	c13.36,0.1,21.23,8.06,26.17,19.67C797.16,420.6,797.16,424.5,797.16,428.41z"/>
<path class="st0" d="M797.16,528.88c-5.95,15-17.25,20.25-32.92,19.8c-22.81-0.65-45.66,0.08-68.48-0.25
	c-19.34-0.29-31.68-17.03-25.3-34c4.19-11.15,12.97-16.72,24.52-16.88c25.33-0.34,50.67-0.24,76-0.05
	c13.35,0.1,21.23,8.06,26.18,19.66C797.16,521.06,797.16,524.97,797.16,528.88z"/>
<path class="st0" d="M797.16,227.48c-5.96,15-17.38,20.19-32.95,19.78c-21.7-0.57-43.43-0.03-65.14-0.24
	c-4.66-0.04-9.55-0.55-13.91-2.05c-10.73-3.7-17.91-15.92-16.25-26.42c1.98-12.53,11.52-22.06,24.44-22.32
	c26.44-0.52,52.9-0.49,79.33-0.01c12.57,0.23,19.87,8.55,24.48,19.54C797.16,219.67,797.16,223.57,797.16,227.48z"/>
<path class="st0" d="M797.16,327.95c-5.93,15.04-17.35,20.18-32.94,19.78c-22.53-0.58-45.1,0.06-67.64-0.22
	c-20.04-0.25-32.48-16.72-26.17-34.11c3.61-9.94,12.93-16.73,24.6-16.84c25.33-0.24,50.67-0.2,76-0.02
	c13.37,0.1,21.22,8.06,26.15,19.68C797.16,320.13,797.16,324.04,797.16,327.95z"/>
<path class="st0" d="M469.38,652.17c0-3.67,0-7,0-10.33c0-104.88-0.01-209.76,0.05-314.64c0-4.41-0.01-9.03,1.21-13.2
	c3.45-11.75,15.54-19.33,27.03-17.62c12.37,1.85,21.64,12.1,21.88,24.71c0.23,11.99,0.06,23.99,0.06,35.98
	c0,95.67,0.07,191.35-0.15,287.02c-0.01,6.29,1.63,8.82,7.81,10.93c45.07,15.42,74.17,60.86,68.92,106.65
	c-5.53,48.22-42.17,85.56-89.96,91.69c-50.47,6.47-99.82-28.58-111.43-79.13c-11.64-50.69,17.92-103.14,67.38-119.6
	C464.51,653.87,466.81,653.06,469.38,652.17z M494.75,699.92c-27.87-0.3-51.77,23.35-51.98,51.42
	c-0.2,27.97,23.32,51.83,51.35,52.08c27.92,0.25,51.63-23.24,51.95-51.45C546.39,724,522.94,700.22,494.75,699.92z"/>
</svg>
